<mxfile host="app.diagrams.net" agent="Mozilla/5.0 (Windows NT 10.0; Win64; x64) AppleWebKit/537.36 (KHTML, like Gecko) Chrome/130.0.0.0 Safari/537.36" version="24.8.4">
  <diagram name="Pagina-1" id="0C-8UkO5QC9ZyL5Qz3lh">
    <mxGraphModel dx="1290" dy="2903" grid="1" gridSize="10" guides="1" tooltips="1" connect="1" arrows="1" fold="1" page="1" pageScale="1" pageWidth="827" pageHeight="1169" math="0" shadow="0">
      <root>
        <mxCell id="0" />
        <mxCell id="1" parent="0" />
        <mxCell id="J6PQFJ2LPzravVnVTxm_-1" value="" style="rounded=0;whiteSpace=wrap;html=1;" vertex="1" parent="1">
          <mxGeometry x="80" y="-2240" width="720" height="760" as="geometry" />
        </mxCell>
        <mxCell id="J6PQFJ2LPzravVnVTxm_-2" value="Bier bekijken" style="ellipse;whiteSpace=wrap;html=1;" vertex="1" parent="1">
          <mxGeometry x="290" y="-2210" width="110" height="50" as="geometry" />
        </mxCell>
        <mxCell id="J6PQFJ2LPzravVnVTxm_-3" style="edgeStyle=orthogonalEdgeStyle;rounded=0;orthogonalLoop=1;jettySize=auto;html=1;entryX=0;entryY=0.5;entryDx=0;entryDy=0;" edge="1" parent="1" source="J6PQFJ2LPzravVnVTxm_-6" target="J6PQFJ2LPzravVnVTxm_-9">
          <mxGeometry relative="1" as="geometry">
            <Array as="points">
              <mxPoint x="90" y="-2010" />
              <mxPoint x="90" y="-2145" />
            </Array>
          </mxGeometry>
        </mxCell>
        <mxCell id="J6PQFJ2LPzravVnVTxm_-4" style="edgeStyle=orthogonalEdgeStyle;rounded=0;orthogonalLoop=1;jettySize=auto;html=1;entryX=0;entryY=0.5;entryDx=0;entryDy=0;" edge="1" parent="1" source="J6PQFJ2LPzravVnVTxm_-6" target="J6PQFJ2LPzravVnVTxm_-15">
          <mxGeometry relative="1" as="geometry" />
        </mxCell>
        <mxCell id="J6PQFJ2LPzravVnVTxm_-5" style="edgeStyle=orthogonalEdgeStyle;rounded=0;orthogonalLoop=1;jettySize=auto;html=1;entryX=0;entryY=0.5;entryDx=0;entryDy=0;" edge="1" parent="1" source="J6PQFJ2LPzravVnVTxm_-6" target="J6PQFJ2LPzravVnVTxm_-37">
          <mxGeometry relative="1" as="geometry">
            <Array as="points">
              <mxPoint x="90" y="-1960" />
              <mxPoint x="90" y="-1815" />
            </Array>
          </mxGeometry>
        </mxCell>
        <mxCell id="J6PQFJ2LPzravVnVTxm_-6" value="Speler" style="shape=umlActor;verticalLabelPosition=bottom;verticalAlign=top;html=1;outlineConnect=0;" vertex="1" parent="1">
          <mxGeometry x="20" y="-2025" width="40" height="80" as="geometry" />
        </mxCell>
        <mxCell id="J6PQFJ2LPzravVnVTxm_-7" style="rounded=0;orthogonalLoop=1;jettySize=auto;html=1;exitX=1;exitY=0;exitDx=0;exitDy=0;entryX=0;entryY=0.5;entryDx=0;entryDy=0;" edge="1" parent="1" source="J6PQFJ2LPzravVnVTxm_-9" target="J6PQFJ2LPzravVnVTxm_-2">
          <mxGeometry relative="1" as="geometry">
            <Array as="points">
              <mxPoint x="230" y="-2185" />
            </Array>
          </mxGeometry>
        </mxCell>
        <mxCell id="J6PQFJ2LPzravVnVTxm_-8" style="rounded=0;orthogonalLoop=1;jettySize=auto;html=1;exitX=1;exitY=1;exitDx=0;exitDy=0;entryX=0;entryY=0.5;entryDx=0;entryDy=0;" edge="1" parent="1" source="J6PQFJ2LPzravVnVTxm_-9" target="J6PQFJ2LPzravVnVTxm_-10">
          <mxGeometry relative="1" as="geometry">
            <Array as="points">
              <mxPoint x="230" y="-2105" />
            </Array>
          </mxGeometry>
        </mxCell>
        <mxCell id="J6PQFJ2LPzravVnVTxm_-9" value="Producten bekijken" style="ellipse;whiteSpace=wrap;html=1;" vertex="1" parent="1">
          <mxGeometry x="110" y="-2170" width="110" height="50" as="geometry" />
        </mxCell>
        <mxCell id="J6PQFJ2LPzravVnVTxm_-10" value="Overige producten bekijken" style="ellipse;whiteSpace=wrap;html=1;" vertex="1" parent="1">
          <mxGeometry x="290" y="-2130" width="110" height="50" as="geometry" />
        </mxCell>
        <mxCell id="J6PQFJ2LPzravVnVTxm_-11" value="&amp;lt;&amp;lt;extend&amp;gt;&amp;gt;" style="text;html=1;align=center;verticalAlign=middle;whiteSpace=wrap;rounded=0;" vertex="1" parent="1">
          <mxGeometry x="230" y="-2210" width="50" height="25" as="geometry" />
        </mxCell>
        <mxCell id="J6PQFJ2LPzravVnVTxm_-12" value="&amp;lt;&amp;lt;extend&amp;gt;&amp;gt;" style="text;html=1;align=center;verticalAlign=middle;whiteSpace=wrap;rounded=0;" vertex="1" parent="1">
          <mxGeometry x="230" y="-2130" width="50" height="25" as="geometry" />
        </mxCell>
        <mxCell id="J6PQFJ2LPzravVnVTxm_-13" style="rounded=0;orthogonalLoop=1;jettySize=auto;html=1;exitX=1;exitY=1;exitDx=0;exitDy=0;entryX=0;entryY=0.5;entryDx=0;entryDy=0;" edge="1" parent="1" source="J6PQFJ2LPzravVnVTxm_-15" target="J6PQFJ2LPzravVnVTxm_-24">
          <mxGeometry relative="1" as="geometry">
            <Array as="points">
              <mxPoint x="230" y="-1925" />
            </Array>
          </mxGeometry>
        </mxCell>
        <mxCell id="J6PQFJ2LPzravVnVTxm_-14" style="rounded=0;orthogonalLoop=1;jettySize=auto;html=1;exitX=1;exitY=0;exitDx=0;exitDy=0;entryX=0;entryY=0.5;entryDx=0;entryDy=0;" edge="1" parent="1" source="J6PQFJ2LPzravVnVTxm_-15" target="J6PQFJ2LPzravVnVTxm_-20">
          <mxGeometry relative="1" as="geometry">
            <Array as="points">
              <mxPoint x="230" y="-2035" />
            </Array>
          </mxGeometry>
        </mxCell>
        <mxCell id="J6PQFJ2LPzravVnVTxm_-15" value="Bieren bestellen" style="ellipse;whiteSpace=wrap;html=1;" vertex="1" parent="1">
          <mxGeometry x="110" y="-2010" width="110" height="50" as="geometry" />
        </mxCell>
        <mxCell id="J6PQFJ2LPzravVnVTxm_-16" value="Ophalen" style="ellipse;whiteSpace=wrap;html=1;" vertex="1" parent="1">
          <mxGeometry x="660" y="-1980" width="110" height="50" as="geometry" />
        </mxCell>
        <mxCell id="J6PQFJ2LPzravVnVTxm_-17" value="Bezorgen" style="ellipse;whiteSpace=wrap;html=1;" vertex="1" parent="1">
          <mxGeometry x="660" y="-2040" width="110" height="50" as="geometry" />
        </mxCell>
        <mxCell id="J6PQFJ2LPzravVnVTxm_-18" value="Laat verpakken" style="ellipse;whiteSpace=wrap;html=1;" vertex="1" parent="1">
          <mxGeometry x="480" y="-1950" width="110" height="50" as="geometry" />
        </mxCell>
        <mxCell id="J6PQFJ2LPzravVnVTxm_-19" value="Review achterlaten" style="ellipse;whiteSpace=wrap;html=1;" vertex="1" parent="1">
          <mxGeometry x="480" y="-1890" width="110" height="50" as="geometry" />
        </mxCell>
        <mxCell id="J6PQFJ2LPzravVnVTxm_-20" value="Inloggen" style="ellipse;whiteSpace=wrap;html=1;" vertex="1" parent="1">
          <mxGeometry x="290" y="-2060" width="110" height="50" as="geometry" />
        </mxCell>
        <mxCell id="J6PQFJ2LPzravVnVTxm_-21" style="rounded=0;orthogonalLoop=1;jettySize=auto;html=1;exitX=1;exitY=1;exitDx=0;exitDy=0;entryX=0;entryY=0.5;entryDx=0;entryDy=0;" edge="1" parent="1" source="J6PQFJ2LPzravVnVTxm_-24" target="J6PQFJ2LPzravVnVTxm_-19">
          <mxGeometry relative="1" as="geometry">
            <mxPoint x="420.0008729652601" y="-1907.322330470336" as="sourcePoint" />
            <Array as="points">
              <mxPoint x="410" y="-1865" />
            </Array>
          </mxGeometry>
        </mxCell>
        <mxCell id="J6PQFJ2LPzravVnVTxm_-22" style="rounded=0;orthogonalLoop=1;jettySize=auto;html=1;exitX=1;exitY=0;exitDx=0;exitDy=0;entryX=0;entryY=0.5;entryDx=0;entryDy=0;" edge="1" parent="1" source="J6PQFJ2LPzravVnVTxm_-24" target="J6PQFJ2LPzravVnVTxm_-29">
          <mxGeometry relative="1" as="geometry">
            <mxPoint x="420.0008729652601" y="-1942.6776695296635" as="sourcePoint" />
            <Array as="points">
              <mxPoint x="410" y="-1985" />
            </Array>
          </mxGeometry>
        </mxCell>
        <mxCell id="J6PQFJ2LPzravVnVTxm_-23" style="edgeStyle=orthogonalEdgeStyle;rounded=0;orthogonalLoop=1;jettySize=auto;html=1;exitX=1;exitY=0.5;exitDx=0;exitDy=0;entryX=0;entryY=0.5;entryDx=0;entryDy=0;" edge="1" parent="1" source="J6PQFJ2LPzravVnVTxm_-24" target="J6PQFJ2LPzravVnVTxm_-18">
          <mxGeometry relative="1" as="geometry">
            <mxPoint x="436.11" y="-1925" as="sourcePoint" />
          </mxGeometry>
        </mxCell>
        <mxCell id="J6PQFJ2LPzravVnVTxm_-24" value="Afrekenen" style="ellipse;whiteSpace=wrap;html=1;" vertex="1" parent="1">
          <mxGeometry x="290" y="-1950" width="110" height="50" as="geometry" />
        </mxCell>
        <mxCell id="J6PQFJ2LPzravVnVTxm_-25" value="&amp;lt;&amp;lt;extend&amp;gt;&amp;gt;" style="text;html=1;align=center;verticalAlign=middle;whiteSpace=wrap;rounded=0;" vertex="1" parent="1">
          <mxGeometry x="230" y="-1950" width="50" height="25" as="geometry" />
        </mxCell>
        <mxCell id="J6PQFJ2LPzravVnVTxm_-26" value="&amp;lt;&amp;lt;include&amp;gt;&amp;gt;" style="text;html=1;align=center;verticalAlign=middle;whiteSpace=wrap;rounded=0;" vertex="1" parent="1">
          <mxGeometry x="230" y="-2055" width="50" height="20" as="geometry" />
        </mxCell>
        <mxCell id="J6PQFJ2LPzravVnVTxm_-27" style="rounded=0;orthogonalLoop=1;jettySize=auto;html=1;exitX=1;exitY=0;exitDx=0;exitDy=0;entryX=0;entryY=0.5;entryDx=0;entryDy=0;" edge="1" parent="1" source="J6PQFJ2LPzravVnVTxm_-29" target="J6PQFJ2LPzravVnVTxm_-17">
          <mxGeometry relative="1" as="geometry">
            <Array as="points">
              <mxPoint x="600" y="-2015" />
            </Array>
          </mxGeometry>
        </mxCell>
        <mxCell id="J6PQFJ2LPzravVnVTxm_-28" style="rounded=0;orthogonalLoop=1;jettySize=auto;html=1;exitX=1;exitY=1;exitDx=0;exitDy=0;entryX=0;entryY=0.5;entryDx=0;entryDy=0;" edge="1" parent="1" source="J6PQFJ2LPzravVnVTxm_-29" target="J6PQFJ2LPzravVnVTxm_-16">
          <mxGeometry relative="1" as="geometry">
            <Array as="points">
              <mxPoint x="600" y="-1955" />
            </Array>
          </mxGeometry>
        </mxCell>
        <mxCell id="J6PQFJ2LPzravVnVTxm_-29" value="Leveringsmethode kiezen" style="ellipse;whiteSpace=wrap;html=1;" vertex="1" parent="1">
          <mxGeometry x="480" y="-2010" width="110" height="50" as="geometry" />
        </mxCell>
        <mxCell id="J6PQFJ2LPzravVnVTxm_-30" value="&amp;lt;&amp;lt;extend&amp;gt;&amp;gt;" style="text;html=1;align=center;verticalAlign=middle;whiteSpace=wrap;rounded=0;" vertex="1" parent="1">
          <mxGeometry x="410" y="-1890" width="60" height="20" as="geometry" />
        </mxCell>
        <mxCell id="J6PQFJ2LPzravVnVTxm_-31" value="&amp;lt;&amp;lt;extend&amp;gt;&amp;gt;" style="text;html=1;align=center;verticalAlign=middle;whiteSpace=wrap;rounded=0;" vertex="1" parent="1">
          <mxGeometry x="600" y="-2040" width="50" height="30" as="geometry" />
        </mxCell>
        <mxCell id="J6PQFJ2LPzravVnVTxm_-32" value="&amp;lt;&amp;lt;extend&amp;gt;&amp;gt;" style="text;html=1;align=center;verticalAlign=middle;whiteSpace=wrap;rounded=0;" vertex="1" parent="1">
          <mxGeometry x="600" y="-1980" width="50" height="30" as="geometry" />
        </mxCell>
        <mxCell id="J6PQFJ2LPzravVnVTxm_-33" value="&amp;lt;&amp;lt;extend&amp;gt;&amp;gt;" style="text;html=1;align=center;verticalAlign=middle;whiteSpace=wrap;rounded=0;" vertex="1" parent="1">
          <mxGeometry x="410" y="-1950" width="60" height="25" as="geometry" />
        </mxCell>
        <mxCell id="J6PQFJ2LPzravVnVTxm_-34" value="&amp;lt;&amp;lt;extend&amp;gt;&amp;gt;" style="text;html=1;align=center;verticalAlign=middle;whiteSpace=wrap;rounded=0;" vertex="1" parent="1">
          <mxGeometry x="410" y="-2010" width="60" height="30" as="geometry" />
        </mxCell>
        <mxCell id="J6PQFJ2LPzravVnVTxm_-35" style="rounded=0;orthogonalLoop=1;jettySize=auto;html=1;exitX=1;exitY=0;exitDx=0;exitDy=0;entryX=0;entryY=0.5;entryDx=0;entryDy=0;" edge="1" parent="1" source="J6PQFJ2LPzravVnVTxm_-37" target="J6PQFJ2LPzravVnVTxm_-38">
          <mxGeometry relative="1" as="geometry">
            <Array as="points">
              <mxPoint x="230" y="-1847" />
            </Array>
          </mxGeometry>
        </mxCell>
        <mxCell id="J6PQFJ2LPzravVnVTxm_-36" style="rounded=0;orthogonalLoop=1;jettySize=auto;html=1;exitX=1;exitY=1;exitDx=0;exitDy=0;entryX=0;entryY=0.5;entryDx=0;entryDy=0;" edge="1" parent="1" source="J6PQFJ2LPzravVnVTxm_-37" target="J6PQFJ2LPzravVnVTxm_-57">
          <mxGeometry relative="1" as="geometry">
            <Array as="points">
              <mxPoint x="230" y="-1785" />
            </Array>
          </mxGeometry>
        </mxCell>
        <mxCell id="J6PQFJ2LPzravVnVTxm_-37" value="Inloggen" style="ellipse;whiteSpace=wrap;html=1;" vertex="1" parent="1">
          <mxGeometry x="110" y="-1840" width="110" height="50" as="geometry" />
        </mxCell>
        <mxCell id="J6PQFJ2LPzravVnVTxm_-38" value="Account aanmaken" style="ellipse;whiteSpace=wrap;html=1;" vertex="1" parent="1">
          <mxGeometry x="290" y="-1872.5" width="110" height="50" as="geometry" />
        </mxCell>
        <mxCell id="J6PQFJ2LPzravVnVTxm_-39" value="&amp;lt;&amp;lt;extend&amp;gt;&amp;gt;" style="text;html=1;align=center;verticalAlign=middle;whiteSpace=wrap;rounded=0;" vertex="1" parent="1">
          <mxGeometry x="230" y="-1872.5" width="50" height="25" as="geometry" />
        </mxCell>
        <mxCell id="J6PQFJ2LPzravVnVTxm_-40" style="edgeStyle=orthogonalEdgeStyle;rounded=0;orthogonalLoop=1;jettySize=auto;html=1;entryX=0;entryY=0.5;entryDx=0;entryDy=0;" edge="1" parent="1" source="J6PQFJ2LPzravVnVTxm_-42" target="J6PQFJ2LPzravVnVTxm_-46">
          <mxGeometry relative="1" as="geometry">
            <Array as="points">
              <mxPoint x="90" y="-1680" />
              <mxPoint x="90" y="-1705" />
            </Array>
          </mxGeometry>
        </mxCell>
        <mxCell id="J6PQFJ2LPzravVnVTxm_-41" style="edgeStyle=orthogonalEdgeStyle;rounded=0;orthogonalLoop=1;jettySize=auto;html=1;entryX=0;entryY=0.5;entryDx=0;entryDy=0;" edge="1" parent="1" source="J6PQFJ2LPzravVnVTxm_-42" target="J6PQFJ2LPzravVnVTxm_-49">
          <mxGeometry relative="1" as="geometry">
            <Array as="points">
              <mxPoint x="90" y="-1660" />
              <mxPoint x="90" y="-1635" />
            </Array>
          </mxGeometry>
        </mxCell>
        <mxCell id="J6PQFJ2LPzravVnVTxm_-42" value="Eigenaar" style="shape=umlActor;verticalLabelPosition=bottom;verticalAlign=top;html=1;outlineConnect=0;" vertex="1" parent="1">
          <mxGeometry x="20" y="-1710" width="40" height="80" as="geometry" />
        </mxCell>
        <mxCell id="J6PQFJ2LPzravVnVTxm_-43" style="edgeStyle=orthogonalEdgeStyle;rounded=0;orthogonalLoop=1;jettySize=auto;html=1;" edge="1" parent="1" source="J6PQFJ2LPzravVnVTxm_-44" target="J6PQFJ2LPzravVnVTxm_-50">
          <mxGeometry relative="1" as="geometry" />
        </mxCell>
        <mxCell id="J6PQFJ2LPzravVnVTxm_-44" value="Bevoorraadde" style="shape=umlActor;verticalLabelPosition=bottom;verticalAlign=top;html=1;outlineConnect=0;" vertex="1" parent="1">
          <mxGeometry x="20" y="-1590" width="40" height="80" as="geometry" />
        </mxCell>
        <mxCell id="J6PQFJ2LPzravVnVTxm_-45" style="edgeStyle=orthogonalEdgeStyle;rounded=0;orthogonalLoop=1;jettySize=auto;html=1;entryX=0;entryY=0.5;entryDx=0;entryDy=0;" edge="1" parent="1" source="J6PQFJ2LPzravVnVTxm_-46" target="J6PQFJ2LPzravVnVTxm_-47">
          <mxGeometry relative="1" as="geometry" />
        </mxCell>
        <mxCell id="J6PQFJ2LPzravVnVTxm_-46" value="Blog schrijven" style="ellipse;whiteSpace=wrap;html=1;" vertex="1" parent="1">
          <mxGeometry x="110" y="-1730" width="110" height="50" as="geometry" />
        </mxCell>
        <mxCell id="J6PQFJ2LPzravVnVTxm_-47" value="Blog uploaden" style="ellipse;whiteSpace=wrap;html=1;" vertex="1" parent="1">
          <mxGeometry x="290" y="-1730" width="110" height="50" as="geometry" />
        </mxCell>
        <mxCell id="J6PQFJ2LPzravVnVTxm_-48" style="edgeStyle=orthogonalEdgeStyle;rounded=0;orthogonalLoop=1;jettySize=auto;html=1;exitX=1;exitY=0.5;exitDx=0;exitDy=0;entryX=0;entryY=0.5;entryDx=0;entryDy=0;" edge="1" parent="1" source="J6PQFJ2LPzravVnVTxm_-49" target="J6PQFJ2LPzravVnVTxm_-55">
          <mxGeometry relative="1" as="geometry" />
        </mxCell>
        <mxCell id="J6PQFJ2LPzravVnVTxm_-49" value="Activiteit organiseren" style="ellipse;whiteSpace=wrap;html=1;" vertex="1" parent="1">
          <mxGeometry x="110" y="-1660" width="110" height="50" as="geometry" />
        </mxCell>
        <mxCell id="J6PQFJ2LPzravVnVTxm_-50" value="Voorraad controleren" style="ellipse;whiteSpace=wrap;html=1;" vertex="1" parent="1">
          <mxGeometry x="110" y="-1575" width="110" height="50" as="geometry" />
        </mxCell>
        <mxCell id="J6PQFJ2LPzravVnVTxm_-51" value="&amp;lt;&amp;lt;extend&amp;gt;&amp;gt;" style="text;html=1;align=center;verticalAlign=middle;whiteSpace=wrap;rounded=0;" vertex="1" parent="1">
          <mxGeometry x="230" y="-1730" width="50" height="25" as="geometry" />
        </mxCell>
        <mxCell id="J6PQFJ2LPzravVnVTxm_-52" value="Platformer game project" style="text;html=1;align=center;verticalAlign=middle;whiteSpace=wrap;rounded=0;fontStyle=1;fontSize=14;fillColor=default;strokeColor=default;perimeterSpacing=0;" vertex="1" parent="1">
          <mxGeometry y="-2338" width="180" height="30" as="geometry" />
        </mxCell>
        <mxCell id="J6PQFJ2LPzravVnVTxm_-53" value="&lt;font style=&quot;font-size: 12px;&quot;&gt;Usecase Diagram&lt;/font&gt;" style="text;html=1;align=center;verticalAlign=middle;whiteSpace=wrap;rounded=0;fontStyle=1;fontSize=14;fillColor=default;strokeColor=default;" vertex="1" parent="1">
          <mxGeometry x="180" y="-2338" width="120" height="30" as="geometry" />
        </mxCell>
        <mxCell id="J6PQFJ2LPzravVnVTxm_-54" value="&lt;font style=&quot;font-size: 12px;&quot;&gt;Usecase diagram platformer game&lt;/font&gt;" style="text;html=1;align=left;verticalAlign=middle;whiteSpace=wrap;rounded=0;fontStyle=1;fontSize=14;" vertex="1" parent="1">
          <mxGeometry x="80" y="-2270" width="300" height="30" as="geometry" />
        </mxCell>
        <mxCell id="J6PQFJ2LPzravVnVTxm_-55" value="Activiteit&amp;nbsp;&lt;div&gt;publiceren&lt;/div&gt;" style="ellipse;whiteSpace=wrap;html=1;" vertex="1" parent="1">
          <mxGeometry x="290" y="-1660" width="110" height="50" as="geometry" />
        </mxCell>
        <mxCell id="J6PQFJ2LPzravVnVTxm_-56" value="&amp;lt;&amp;lt;extend&amp;gt;&amp;gt;" style="text;html=1;align=center;verticalAlign=middle;whiteSpace=wrap;rounded=0;" vertex="1" parent="1">
          <mxGeometry x="230" y="-1660" width="50" height="25" as="geometry" />
        </mxCell>
        <mxCell id="J6PQFJ2LPzravVnVTxm_-57" value="Wachtwoord&lt;div&gt;wijzigen&lt;/div&gt;" style="ellipse;whiteSpace=wrap;html=1;" vertex="1" parent="1">
          <mxGeometry x="290" y="-1810" width="110" height="50" as="geometry" />
        </mxCell>
        <mxCell id="J6PQFJ2LPzravVnVTxm_-58" value="&amp;lt;&amp;lt;extend&amp;gt;&amp;gt;" style="text;html=1;align=center;verticalAlign=middle;whiteSpace=wrap;rounded=0;" vertex="1" parent="1">
          <mxGeometry x="230" y="-1810" width="50" height="25" as="geometry" />
        </mxCell>
      </root>
    </mxGraphModel>
  </diagram>
</mxfile>
